<svg width="280" height="360" viewBox="0 0 280 360" xmlns="http://www.w3.org/2000/svg">
  <!-- SmartStudy — Mark on red background -->
  <rect width="280" height="360" rx="24" fill="#BE2528" />
  <g transform="translate(111, 40) scale(1.2)">
    <ellipse cx="18" cy="6" rx="10" ry="5" fill="#C49B1A" />
    <rect x="15" y="8" width="6" height="4" fill="#E8B930" />
    <polygon points="3,12 33,12 36,190 0,190" fill="#E8B930" />
    <rect x="-4" y="34" width="44" height="3" rx="1" fill="#C49B1A" />
    <rect x="-3" y="62" width="42" height="3" rx="1" fill="#C49B1A" />
    <rect x="-2" y="90" width="40" height="3" rx="1" fill="#C49B1A" />
    <rect x="-1" y="118" width="39" height="3" rx="1" fill="#C49B1A" />
    <rect x="-1" y="146" width="39" height="3" rx="1" fill="#C49B1A" />
    <rect x="7" y="17" width="8" height="13" rx="1" fill="#FFFDF8" opacity="0.95" />
    <rect x="21" y="17" width="8" height="13" rx="1" fill="#FFFDF8" opacity="0.95" />
    <rect x="7" y="39" width="8" height="19" rx="1" fill="#FFFDF8" opacity="0.9" />
    <rect x="21" y="39" width="8" height="19" rx="1" fill="#FFFDF8" opacity="0.9" />
    <rect x="6" y="67" width="9" height="19" rx="1" fill="#FFFDF8" opacity="0.88" />
    <rect x="21" y="67" width="9" height="19" rx="1" fill="#FFFDF8" opacity="0.88" />
    <rect x="6" y="95" width="9" height="19" rx="1" fill="#FFFDF8" opacity="0.85" />
    <rect x="22" y="95" width="9" height="19" rx="1" fill="#FFFDF8" opacity="0.85" />
    <rect x="5" y="123" width="10" height="19" rx="1" fill="#FFFDF8" opacity="0.82" />
    <rect x="22" y="123" width="10" height="19" rx="1" fill="#FFFDF8" opacity="0.82" />
    <line x1="18" y1="14" x2="18" y2="144" stroke="#C49B1A" stroke-width="1.2" />
    <rect x="8" y="152" width="21" height="34" rx="2" fill="#FFFDF8" opacity="0.78" />
    <rect x="6" y="150" width="25" height="3" rx="1" fill="#C49B1A" />
    <rect x="-6" y="190" width="48" height="8" rx="2" fill="#C49B1A" />
    <rect x="-6" y="200" width="12" height="3" rx="1" fill="#FFFDF8" opacity="0.5" />
    <rect x="12" y="200" width="12" height="3" rx="1" fill="#E8B930" />
    <rect x="30" y="200" width="12" height="3" rx="1" fill="#FFFDF8" opacity="0.5" />
  </g>
</svg>
