<svg width="32" height="32" viewBox="0 0 32 32" xmlns="http://www.w3.org/2000/svg">
  <!-- SmartStudy — Favicon 32px -->
  <rect width="32" height="32" rx="7" fill="#1E1610" />
  <g transform="translate(11, 2) scale(0.14)">
    <ellipse cx="18" cy="6" rx="10" ry="5" fill="#A06B10" />
    <polygon points="3,12 33,12 36,190 0,190" fill="#C4841D" />
    <rect x="-3" y="34" width="42" height="3" rx="1" fill="#A06B10" />
    <rect x="-2" y="62" width="40" height="3" rx="1" fill="#A06B10" />
    <rect x="-1" y="90" width="39" height="3" rx="1" fill="#A06B10" />
    <rect x="-1" y="118" width="39" height="3" rx="1" fill="#A06B10" />
    <rect x="7" y="17" width="8" height="13" rx="1" fill="#F6F0E4" />
    <rect x="21" y="17" width="8" height="13" rx="1" fill="#F6F0E4" />
    <rect x="7" y="39" width="8" height="19" rx="1" fill="#F6F0E4" />
    <rect x="21" y="39" width="8" height="19" rx="1" fill="#F6F0E4" />
    <rect x="6" y="67" width="9" height="19" rx="1" fill="#F6F0E4" />
    <rect x="21" y="67" width="9" height="19" rx="1" fill="#F6F0E4" />
    <rect x="6" y="95" width="9" height="19" rx="1" fill="#F6F0E4" />
    <rect x="22" y="95" width="9" height="19" rx="1" fill="#F6F0E4" />
    <line x1="18" y1="14" x2="18" y2="144" stroke="#A06B10" stroke-width="1.5" />
    <rect x="8" y="152" width="21" height="34" rx="2" fill="#F6F0E4" opacity="0.7" />
    <rect x="-6" y="190" width="48" height="8" rx="2" fill="#A06B10" />
  </g>
</svg>
